<svg width="234" height="370" viewBox="0 0 234 370" fill="none" xmlns="http://www.w3.org/2000/svg">
<g opacity="0.9">
<path fill-rule="evenodd" clip-rule="evenodd" d="M117.03 34.0128C112.783 28.9685 109.909 22.7866 110.389 15.8597C111.773 -4.09878 139.231 0.29183 144.572 10.3651C149.913 20.4385 149.278 45.9903 142.375 47.7906C139.623 48.5086 133.758 46.7499 127.789 43.1097L131.536 69.9278H109.415L117.03 34.0128Z" fill="#57331F"/>
<path fill-rule="evenodd" clip-rule="evenodd" d="M128.895 18.0639C129.742 29.9988 131.982 35.9662 135.615 35.9662C141.065 35.9662 145.689 32.4655 148.08 32.4655C149.823 32.4655 149.434 34.6727 148.278 36.3092C147.325 37.6594 142.683 38.9608 142.683 41.054C142.683 43.1472 146.351 41.5278 146.351 42.7692C146.351 44.8227 146.995 48.6837 143.473 48.6837C139.908 48.6837 129.687 47.3692 127.936 42.0159C126.805 38.561 126.075 31.4019 125.743 20.5384C125.527 20.5124 125.307 20.499 125.084 20.499C122.029 20.499 119.553 23.0043 119.553 26.0947C119.553 27.6636 120.191 29.0817 121.219 30.0977C119.94 31.9253 118.506 33.8344 116.862 35.8044C110.689 32.0567 106.108 21.0856 112.143 10.5464C113.812 5.3834 117.588 2.62564 122.049 1.34513C125.662 -0.184165 129.413 -0.356595 132.579 0.560204C138.786 1.09888 144.328 3.01387 145.899 4.15113C145.899 10.0968 144.76 11.8608 135.035 11.7053C132.646 12.9823 130.809 15.1811 128.895 18.0639Z" fill="#191847"/>
<path fill-rule="evenodd" clip-rule="evenodd" d="M107.64 147.104L152.879 262.961L183.221 360.907H195.202L148.816 147.104L107.64 147.104Z" fill="#3D2216"/>
<path fill-rule="evenodd" clip-rule="evenodd" d="M98.5305 147.104C98.0487 187.817 91.0233 242.63 89.9009 245.168C89.1526 246.86 63.3208 268.375 12.4053 309.714L20.6575 318.649C80.7331 283.206 112.161 263.122 114.941 258.394C119.111 251.304 132.687 186.054 143.587 147.104H98.5305Z" fill="#57331F"/>
<path fill-rule="evenodd" clip-rule="evenodd" d="M11.3132 306.735C8.53953 307.729 6.62865 308.671 5.58054 309.56C4.30579 310.643 2.62351 312.437 0.533694 314.943C1.77247 316.437 12.9055 329.863 33.9329 355.222C38.2262 353.36 39.5743 351.186 37.9775 348.699C36.3807 346.212 35.0738 344.129 34.0571 342.45L26.7949 316.714C26.6551 316.219 26.1448 315.932 25.6551 316.075C25.6467 316.077 25.6384 316.08 25.63 316.082L21.7427 317.332C19.0474 316.063 17.1586 314.776 16.0763 313.471C15.197 312.411 14.4065 310.586 13.705 307.998L13.705 307.998C13.4358 307.004 12.4212 306.421 11.4388 306.695C11.3965 306.707 11.3546 306.72 11.3132 306.735Z" fill="#E3E3E3"/>
<path fill-rule="evenodd" clip-rule="evenodd" d="M178.315 356.386C177.284 359.171 176.768 361.255 176.768 362.638C176.768 364.319 177.045 366.773 177.599 370C179.527 370 196.856 370 229.585 370C230.936 365.481 230.156 363.041 227.245 362.681C224.335 362.321 221.917 361.995 219.992 361.705L195.829 350.806C195.364 350.596 194.819 350.807 194.612 351.278C194.608 351.286 194.605 351.294 194.602 351.302L193.049 355.114C190.354 356.386 188.165 357.022 186.48 357.022C185.111 357.022 183.221 356.463 180.809 355.344L180.809 355.344C179.884 354.915 178.79 355.326 178.365 356.263C178.347 356.303 178.33 356.344 178.315 356.386Z" fill="#E3E3E3"/>
<path fill-rule="evenodd" clip-rule="evenodd" d="M138.056 350.819L195.022 344.563L152.804 147.104H101.782L138.056 350.819Z" fill="#69A1AC"/>
<path fill-rule="evenodd" clip-rule="evenodd" d="M24.1885 295.298L61.5546 340.05C100.912 296.556 123.857 268.177 130.39 254.911C136.924 241.646 142.797 205.71 148.01 147.104H90.5683C87.7207 198.663 85.8012 225.642 84.8098 228.041C83.8184 230.441 63.6113 252.86 24.1885 295.298Z" fill="#89C5CC"/>
<path fill-rule="evenodd" clip-rule="evenodd" d="M188.265 135.539L214.375 161.312C221.972 164.591 228.197 168.212 233.049 172.174C234.14 173.506 235.328 176.058 230.194 174.916C225.06 173.774 219.609 172.806 218.644 174.496C217.679 176.185 220.522 178.774 218.739 180.985C217.55 182.459 213.552 177.77 206.744 166.919L179.593 150.722L188.265 135.539ZM60.5865 112.214L80.7696 112.291C65.3975 162.683 57.2376 189.068 56.2897 191.445C54.1569 196.793 58.6701 204.938 60.6002 209.316C54.3141 212.162 54.9839 201.621 47.0541 205.354C39.8162 208.761 34.3104 214.935 25.948 209.714C24.9199 209.072 23.7933 206.655 26.5154 204.767C33.2971 200.062 43.0699 191.827 44.3904 189.116C46.1911 185.42 51.5898 159.786 60.5865 112.214Z" fill="#57331F"/>
<path fill-rule="evenodd" clip-rule="evenodd" d="M122.088 54.2819L130.058 52.8987C142.613 97.8059 207.122 128.417 211.083 145.204C212.535 151.36 208.156 154.473 210.418 156.348L200.058 164.021C198.304 161.95 194.56 165.739 186.742 163.089C178.924 160.439 122.088 107.456 122.088 54.2819Z" fill="#191847"/>
<path fill-rule="evenodd" clip-rule="evenodd" d="M135.495 60.2521C134.576 119.706 168.543 134.872 160.977 158.722C154.729 178.417 94.9272 199.59 84.5789 180.284C80.39 172.469 78.4895 163.017 78.2738 152.742C75.629 160.636 73.5373 167.432 71.9986 173.13C69.3441 182.96 59.0533 184.523 59.0533 188.309L45.4953 184.523C46.4149 179.378 40.0233 176.873 41.7371 165.38C49.4157 113.883 70.0467 76.5547 103.63 53.3948L103.977 48.3674C104.12 46.3121 105.881 44.7625 107.913 44.9062L132.738 46.6627C134.769 46.8064 136.301 48.5891 136.159 50.6443L135.495 60.2521Z" fill="#2F3676"/>
</g>
</svg>
