<svg width="310" height="370" viewBox="0 0 310 370" fill="none" xmlns="http://www.w3.org/2000/svg">
<g opacity="0.9">
<path fill-rule="evenodd" clip-rule="evenodd" d="M178.313 72.8841C182.936 67.446 186.065 60.7814 185.542 53.3137C184.035 31.7969 154.149 36.5303 148.335 47.3901C142.522 58.2499 143.212 85.7968 150.726 87.7377C153.722 88.5118 160.105 86.6157 166.602 82.6913L162.524 111.603H186.602L178.313 72.8841Z" fill="#B28B67"/>
<path fill-rule="evenodd" clip-rule="evenodd" d="M162.059 34.8738C165.232 34.3522 173.777 33.9937 175.352 33.9939C176.359 33.9939 177.451 34.2244 178.047 33.2978C178.535 32.539 178.356 31.2556 178.502 30.3751C178.671 29.3521 178.912 28.3424 179.155 27.3352C179.847 24.4692 180.893 21.7425 182.357 19.1825C185.105 14.3796 189.129 10.6175 194.21 8.42833C199.82 6.01116 206.169 5.45767 212.204 5.94796C218.662 6.47251 224.508 8.60913 230.606 10.6198C236.417 12.5358 242.503 13.29 248.58 12.3543C254.703 11.4117 259.33 8.08574 264.494 4.92896C269.782 1.69718 275.824 -0.416516 282.075 0.0693735C287.909 0.523086 293.287 2.93749 298.111 6.16278C302.625 9.18043 306.35 12.8111 308.453 17.9209C310.715 23.4175 310.713 29.451 306.993 34.3087C301.601 41.35 291.591 43.1709 283.263 42.9899C278.446 42.8855 273.715 42.0042 269.167 40.4012C263.102 38.2632 257.861 34.6395 252.186 31.6994C249.524 30.3197 246.771 29.1866 243.886 28.3704C241.086 27.578 238.329 27.2146 235.794 28.9095C233.113 30.7026 230.71 32.464 227.642 33.5865C224.699 34.6633 221.582 35.2657 218.447 35.2414C212.346 35.1941 206.333 33.2892 200.408 32.0133C195.576 30.973 190.407 29.9362 185.481 30.9362C183.426 31.3536 180.423 32.2151 179.681 34.3559C192.176 36.6254 197.083 52.1118 193.561 63.4803C191.659 69.6163 180.232 76.7893 175.788 73.5635C172.973 71.5199 174.682 68.8369 175.788 67.0658C177.906 63.6741 178.631 59.3173 174.712 56.9559C171.331 54.9193 167.777 59.7557 167.709 59.7504C166.78 59.677 158.752 55.1265 153.22 48.4862C147.763 48.8104 146.935 45.2044 148.238 42.2553C149.541 39.3063 157.674 35.5948 162.059 34.8738Z" fill="#17171B"/>
<path d="M196.634 370C153.971 370 119.385 336.914 119.385 296.101C119.385 255.287 153.971 222.201 196.634 222.201C239.298 222.201 273.883 255.287 273.883 296.101C273.883 336.914 239.298 370 196.634 370Z" fill="#E3E3E3"/>
<path fill-rule="evenodd" clip-rule="evenodd" d="M50.6541 358.598C63.5084 330.086 72.8044 305.258 76.5358 292.159C82.9249 269.731 87.7853 249.995 89.0138 242.624C91.9432 225.049 66.4792 224.025 63.1133 232.76C58.0191 245.98 49.1256 289.417 38.4394 355.026L50.6541 358.598ZM199.756 269.118C187.962 264.446 146.661 249.825 126.742 245.689C121.018 244.501 115.47 243.396 110.254 242.399C94.7496 239.432 86.7172 267.463 101.649 269.617C138.836 274.981 191.555 280.52 196.067 281.141C202.39 282.012 207.168 272.054 199.756 269.118Z" fill="#B28B67"/>
<path fill-rule="evenodd" clip-rule="evenodd" d="M100.738 234.685L164.531 202.139V195.054H156.944C95.2273 210.815 63.6901 220.916 62.3324 225.356C62.3178 225.404 62.3044 225.451 62.2923 225.499C62.2612 225.54 62.2307 225.581 62.2007 225.623C49.9697 242.481 42.6446 324.782 40.2404 330.945L63.6777 334.449C72.6431 301.131 101.327 277.92 100.565 238.015C100.771 236.845 100.823 235.735 100.738 234.685Z" fill="#80BFBA"/>
<path fill-rule="evenodd" clip-rule="evenodd" d="M159.23 254.013C165.067 252.842 170.443 251.797 175.042 250.989C204.751 245.766 213.415 229.828 208.292 195.054H153.554C144.612 197.628 98.1426 217.159 74.0322 227.546C58.0747 234.421 63.105 259.205 72.1418 265.655C72.1908 266.051 72.3535 266.32 72.6431 266.44C121.254 286.632 159.71 276.037 172.557 279.422L178.499 260.637L159.23 254.013Z" fill="#66B4AB"/>
<path fill-rule="evenodd" clip-rule="evenodd" d="M195.714 266.135C198.901 266.442 201.163 266.923 202.501 267.577C204.128 268.373 206.371 269.805 209.229 271.875C208.309 273.765 200.045 290.751 184.438 322.834C179.421 322.02 177.432 320.101 178.472 317.077C179.511 314.054 180.349 311.53 180.986 309.505L181.963 280.663C181.981 280.108 182.446 279.674 183 279.693C183.009 279.694 183.019 279.694 183.028 279.695L187.457 279.976C189.973 277.937 191.633 276.091 192.436 274.44C193.089 273.098 193.449 270.981 193.517 268.088L193.517 268.088C193.543 266.977 194.462 266.099 195.571 266.126C195.618 266.128 195.666 266.13 195.714 266.135Z" fill="#E4E4E4"/>
<path fill-rule="evenodd" clip-rule="evenodd" d="M56.5041 353.311C57.6265 356.314 58.1877 358.561 58.1877 360.052C58.1877 361.865 57.8863 364.51 57.2835 367.989C55.1848 367.989 36.3234 367.989 0.699181 367.989C-0.771248 363.117 0.0775681 360.487 3.24562 360.098C6.41368 359.71 9.04544 359.359 11.1409 359.046L37.4408 347.296C37.9468 347.07 38.54 347.298 38.7656 347.805C38.7694 347.813 38.7732 347.822 38.7768 347.831L40.4673 351.941C43.4001 353.312 45.7833 353.998 47.6169 353.998C49.1067 353.998 51.164 353.395 53.789 352.189L53.789 352.189C54.7964 351.726 55.9873 352.169 56.4491 353.179C56.469 353.222 56.4874 353.267 56.5041 353.311Z" fill="#E4E4E4"/>
<path fill-rule="evenodd" clip-rule="evenodd" d="M102.33 167.523L65.9783 151.523C59.6103 145.164 53.4611 140.33 47.5306 137.023C45.7573 136.457 42.7277 136.286 45.9601 141.018C49.1924 145.749 52.3801 150.872 51.0885 152.53C49.797 154.188 46.0556 152.358 44.5775 155.055C43.5921 156.852 49.8987 159.003 63.4973 161.506L90.7227 182.425L102.33 167.523ZM249.296 171.929L228.738 176.017C249.412 214.631 260.5 235.097 262 237.414C265.376 242.627 262.226 252.181 261.063 257.212C268.361 258.914 265.483 247.905 274.719 250.204C283.149 252.302 290.297 257.686 298.158 250.425C299.124 249.532 299.832 246.741 296.537 245.31C288.327 241.744 276.199 235.067 274.232 232.475C271.55 228.94 263.238 208.758 249.296 171.929Z" fill="#B28B67"/>
<path fill-rule="evenodd" clip-rule="evenodd" d="M172.863 94.8451L164.188 93.3539C145.292 111.723 137.582 155.855 124.989 161.697C113.084 167.22 96.2068 161.875 76.1458 154.659L70.0023 168.415C88.2296 188.178 127.061 204.875 142.801 195.343C167.965 180.104 173.775 125.673 172.863 94.8451Z" fill="#FF5458"/>
<path fill-rule="evenodd" clip-rule="evenodd" d="M210.68 204.103C175.896 204.103 150.309 204.103 133.921 204.103C130.413 204.103 131.074 199.028 131.581 196.466C137.433 166.906 160.276 135.042 160.276 92.9634L182.417 89.4839C200.73 119.002 207.063 155.344 210.68 204.103Z" fill="#DDE3E9"/>
<path fill-rule="evenodd" clip-rule="evenodd" d="M218.336 174.175C233.983 202.462 247.136 222.828 257.794 235.272L273.883 232.114C263.519 167.697 233.507 120.154 183.845 89.4839H179.849L175.078 89.4839C155.202 157.388 149.722 202.632 158.639 225.218H227.735C226.641 208.692 223.136 191.215 218.336 174.175H218.336Z" fill="#FF5458"/>
</g>
</svg>
