<?xml version="1.0" encoding="utf-8"?>
<!-- Generator: Adobe Illustrator 27.0.0, SVG Export Plug-In . SVG Version: 6.00 Build 0)  -->
<svg version="1.1" id="Слой_1" xmlns="http://www.w3.org/2000/svg" xmlns:xlink="http://www.w3.org/1999/xlink" x="0px" y="0px"
	 viewBox="0 0 92.3 37.3" style="enable-background:new 0 0 92.3 37.3;" xml:space="preserve">
<style type="text/css">
	.st0{fill:#1D1D1B;}
	.st1{font-family:'Onest-Regular';}
	.st2{font-size:11px;}
	.st3{fill:#E94B53;}
	.st4{fill:#87CABF;}
</style>
<text transform="matrix(1 0 0 1 12.19 8.21)" class="st0 st1 st2">ЧЕРГЕ</text>
<text transform="matrix(1 0 0 1 3.4 20.85)" class="st0 st1 st2">ХАМА</text>
<text transform="matrix(1 0 0 1 34.03 20.85)" class="st0 st1 st2">А</text>
<text transform="matrix(1 0 0 1 41.58 20.85)" class="st0 st1 st2">Р</text>
<text transform="matrix(1 0 0 1 48.43 20.85)" class="st0 st1 st2">ЫШ</text>
<text transform="matrix(1 0 0 1 68.23 20.85)" class="st0 st1 st2">Т</text>
<text transform="matrix(1 0 0 1 74.47 20.85)" class="st0 st1 st2">Ы</text>
<text transform="matrix(1 0 0 1 83.69 20.85)" class="st0 st1 st2">Р</text>
<text transform="matrix(1 9.203928e-03 -9.203928e-03 1 53.6241 33.2725)" class="st0 st1 st2">ЭРГЕ</text>
<rect class="st3" width="9.1" height="9.1"/>
<rect x="83.2" y="24.9" class="st4" width="9.1" height="9.1"/>
</svg>
